<svg xmlns="http://www.w3.org/2000/svg" viewBox="0 0 390 300"><path fill="#ddd7cd" stroke="#24211d" stroke-width="3" stroke-linejoin="round" d="M69.4,168.4 L78.7,180.2 L78.3,183.0 L71.6,187.8 L67.2,194.4 L67.2,198.0 L64.2,198.7 L61.1,194.5 L59.0,199.6 L53.9,203.9 L44.8,205.9 L42.4,209.8 L43.7,222.3 L39.6,230.8 L41.1,236.5 L45.3,237.9 L47.6,243.4 L52.8,244.6 L57.8,252.7 L57.9,265.1 L55.2,266.4 L52.0,274.3 L50.9,284.2 L53.6,291.6 L61.7,295.0 L64.8,289.2 L73.6,285.4 L74.4,274.9 L82.5,270.8 L84.4,265.6 L88.4,266.2 L87.7,270.9 L92.1,268.6 L101.3,273.0 L112.5,266.6 L108.7,261.5 L100.9,258.6 L90.6,244.4 L88.0,242.9 L79.8,244.7 L71.9,237.3 L66.6,235.4 L67.5,224.0 L75.9,211.3 L88.0,211.7 L91.6,217.6 L96.5,220.5 L98.6,226.9 L103.3,228.2 L101.9,229.9 L99.4,228.7 L103.1,231.5 L110.2,222.4 L120.8,214.6 L138.7,206.5 L135.1,209.1 L144.8,209.5 L148.7,211.7 L155.7,218.6 L164.3,221.2 L179.2,233.7 L196.2,242.7 L203.9,244.3 L218.5,258.0 L221.7,248.9 L222.1,231.9 L226.2,222.3 L236.6,207.4 L253.4,190.8 L271.2,182.1 L280.2,186.3 L297.2,187.0 L294.2,183.7 L298.1,178.3 L300.9,178.9 L299.8,181.4 L302.1,183.4 L307.1,183.7 L312.9,179.2 L315.9,172.2 L330.3,169.2 L335.2,170.8 L337.6,162.5 L347.3,158.8 L350.4,155.3 L341.9,154.8 L333.8,163.6 L328.8,161.9 L322.7,154.1 L318.4,138.7 L325.6,140.8 L323.3,143.7 L326.0,143.3 L326.0,141.2 L315.8,136.9 L312.0,129.8 L313.4,119.4 L327.3,93.9 L326.1,88.2 L318.3,98.3 L297.9,116.9 L286.4,117.7 L274.6,114.7 L270.2,109.4 L269.6,104.1 L254.5,102.0 L237.4,95.9 L226.2,89.9 L205.2,72.7 L188.1,52.8 L180.2,37.5 L151.1,5.0 L144.0,13.1 L137.9,13.4 L136.0,10.2 L136.6,17.1 L132.3,25.4 L140.8,49.7 L143.6,68.5 L141.4,81.4 L136.2,89.8 L136.1,116.2 L135.3,114.7 L131.8,122.0 L122.9,125.7 L119.8,131.4 L124.7,159.3 L118.1,169.3 L111.3,172.3 L103.6,168.9 L103.8,165.6 L92.2,168.7 L76.3,156.0 L73.6,159.2 L69.4,158.9 L69.4,168.4Z"/></svg>
